<svg width="879" height="236" viewBox="0 0 879 236" fill="none" xmlns="http://www.w3.org/2000/svg" >
<path d="M63.6878 0.661377C49.2888 0.661377 43.7507 12.2899 41.5355 19.4885L11.6299 163.46H850.648L878.339 21.7034C878.339 21.1497 878.892 18.9347 878.892 16.166C878.892 10.0749 876.123 1.21512 859.509 1.21512H63.6878V0.661377Z" fill="url(#paint0_linear)"/>
<path d="M18.8293 236H812.435C831.265 236 837.91 227.694 840.679 217.726L851.756 161.245H11.6298L0.553684 213.85C-2.21535 226.586 4.98414 236 18.8293 236Z" fill="#7295CD"/>
<path d="M148.42 161.799L103.562 92.0277V161.799H69.7796V23.3641H99.6852L143.99 92.5814V23.3641H177.772V161.799H148.42Z" fill="white"/>
<path d="M235.368 23.3641H201.586V161.799H235.368V23.3641Z" fill="white"/>
<path d="M348.345 147.955C338.93 157.369 325.639 161.799 311.24 161.799H259.736V23.3641H311.24C325.639 23.3641 338.93 27.2403 348.345 37.2076C364.405 53.266 362.744 70.9856 362.744 92.5814C362.744 114.177 364.405 131.897 348.345 147.955ZM325.085 61.0183C321.762 56.5884 317.331 53.266 308.471 53.266H293.518V130.789H308.471C316.778 130.789 321.762 127.467 325.085 123.037C327.854 119.161 328.961 115.285 328.961 92.0277C328.408 69.3244 327.854 65.4482 325.085 61.0183Z" fill="white"/>
<path d="M437.508 161.799H412.033L366.62 23.3641H401.51L424.77 100.334L448.03 23.3641H483.474L437.508 161.799Z" fill="white"/>
<path d="M80.302 211.635C79.1944 212.742 78.0868 212.742 76.4254 212.742C74.764 212.742 73.1025 212.189 72.5487 211.635C71.4411 210.528 70.8873 209.42 70.8873 206.098H73.1025C73.1025 208.313 73.1025 208.866 74.2101 209.974C74.7639 210.528 75.3178 211.081 76.4254 211.081C77.533 211.081 78.6406 210.528 78.6406 209.974C79.7482 208.866 79.7482 207.759 79.7482 206.098C79.7482 202.775 79.1944 201.668 76.9792 200.56L74.2101 199.453C71.4411 198.345 70.8873 196.684 70.8873 192.808C70.8873 190.593 71.4411 188.932 72.5487 187.824C73.6563 186.717 74.764 186.717 76.4254 186.717C78.0868 186.717 79.1944 187.271 80.302 188.378C81.4096 189.485 81.9634 191.147 81.9634 193.362H79.7482C79.7482 191.7 79.7482 190.593 78.6406 190.039C78.0868 189.485 77.533 188.932 76.4254 188.932C75.3178 188.932 74.7639 189.485 74.2101 190.039C73.6563 190.593 73.1025 192.254 73.1025 193.915C73.1025 196.684 73.6563 197.792 75.8716 198.899L78.6406 200.007C81.4096 201.114 81.9634 203.329 81.9634 206.651C81.4096 208.866 81.4096 210.528 80.302 211.635Z" fill="white"/>
<path d="M90.2704 189.486V213.297H88.609V189.486H84.1785V187.271H94.7009V189.486H90.2704Z" fill="white"/>
<path d="M100.239 187.271H98.0237V212.743H100.239V187.271Z" fill="white"/>
<path d="M114.084 212.189C112.977 212.742 111.869 213.296 110.761 213.296C109.1 213.296 107.992 212.743 106.885 211.635C105.223 209.974 105.223 207.759 105.223 200.007C105.223 192.254 105.223 190.039 106.885 188.378C107.992 187.271 109.1 186.717 110.761 186.717C112.423 186.717 113.531 187.271 114.638 187.824C115.746 188.932 116.3 190.593 116.3 192.808H114.084C114.084 191.7 114.084 190.039 112.977 189.485C112.423 188.932 111.869 188.378 110.761 188.378C109.654 188.378 109.1 188.932 108.546 189.485C107.439 190.593 107.439 192.254 107.439 200.007C107.439 207.759 107.439 208.866 108.546 210.528C109.1 211.081 109.654 211.635 110.761 211.635C111.869 211.635 112.423 211.081 112.977 210.528C113.531 209.974 114.084 208.313 114.084 207.205H116.3C115.746 209.42 115.192 211.081 114.084 212.189Z" fill="white"/>
<path d="M128.483 213.297V201.114H121.838V213.297H119.622V187.271H121.838V198.899H128.483V187.271H130.145V213.297H128.483Z" fill="white"/>
<path d="M140.113 189.486V213.297H137.898V189.486H134.021V187.271H144.544V189.486H140.113Z" fill="white"/>
<path d="M150.082 187.271H147.866V212.743H150.082V187.271Z" fill="white"/>
<path d="M164.481 213.297L157.281 192.808V213.297H155.066V187.271H157.281L164.481 207.206V187.271H166.142V213.297H164.481Z" fill="white"/>
<path d="M176.664 213.296C175.003 213.296 173.895 212.743 172.788 211.635C171.126 209.974 171.126 207.759 171.126 200.007C171.126 192.254 171.126 190.039 172.788 188.378C173.895 187.271 175.003 186.717 176.664 186.717C178.326 186.717 179.433 187.271 180.541 188.378C181.649 189.485 182.202 191.147 182.202 193.362H179.987C179.987 191.147 179.433 188.932 176.664 188.932C175.557 188.932 175.003 189.485 174.449 190.039C173.342 191.147 173.342 192.808 173.342 200.56C173.342 208.313 173.342 209.42 174.449 211.081C175.003 211.635 175.557 212.189 176.664 212.189C178.326 212.189 179.987 210.528 179.987 208.313V202.221H176.664V200.56H182.202V208.866C181.649 211.635 179.433 213.296 176.664 213.296Z" fill="white"/>
<path d="M202.693 213.297L195.494 192.808V213.297H193.279V187.271H195.494L202.693 207.206V187.271H204.909V213.297H202.693Z" fill="white"/>
<path d="M209.893 213.297V187.271H218.754V189.486H212.108V199.453H218.2V201.114H212.108V211.082H218.754V213.297H209.893Z" fill="white"/>
<path d="M232.045 211.635C230.937 212.743 229.83 213.297 228.168 213.297H222.63V187.271H228.168C229.83 187.271 230.937 187.825 232.045 188.932C233.707 190.593 233.707 192.808 233.707 200.561C234.26 207.759 233.707 209.974 232.045 211.635ZM230.384 190.04C229.83 189.486 229.276 188.932 228.168 188.932H225.399V211.082H228.168C229.276 211.082 229.83 210.528 230.384 209.974C231.491 208.867 231.491 207.206 231.491 200.007C232.045 192.808 232.045 191.147 230.384 190.04Z" fill="white"/>
<path d="M238.691 213.297V187.271H247.552V189.486H240.906V199.453H246.444V201.114H240.906V211.082H247.552V213.297H238.691Z" fill="white"/>
<path d="M260.843 213.297L256.966 201.668H253.644V213.297H251.428V187.271H256.413C259.735 187.271 261.951 188.378 261.951 194.47C261.951 198.346 260.843 200.561 258.628 201.114L262.505 213.297H260.843ZM256.966 189.486H254.197V200.007H256.966C259.736 200.007 260.289 198.346 260.289 195.023C260.289 191.147 259.182 189.486 256.966 189.486Z" fill="white"/>
<path d="M267.489 213.297V187.271H269.704V211.082H276.35V213.297H267.489Z" fill="white"/>
<path d="M289.641 213.297L287.98 206.098H281.888L280.78 213.297H278.565L284.103 187.825H286.318L291.856 213.297H289.641ZM285.211 191.147L282.442 203.883H287.426L285.211 191.147Z" fill="white"/>
<path d="M304.04 213.297L296.841 192.808V213.297H294.625V187.271H296.841L304.04 207.206L303.486 187.271H305.701V213.297H304.04Z" fill="white"/>
<path d="M320.101 211.635C318.993 212.743 317.885 213.297 316.224 213.297H310.686V187.271H316.224C317.885 187.271 318.993 187.825 320.101 188.932C321.762 190.593 321.762 192.808 321.762 200.561C321.762 207.759 321.762 209.974 320.101 211.635ZM318.439 190.04C317.885 189.486 317.332 188.932 316.224 188.932H313.455V211.082H316.224C317.332 211.082 317.885 210.528 318.439 209.974C319.547 208.867 319.547 207.206 319.547 200.007C319.547 192.808 319.547 191.147 318.439 190.04Z" fill="white"/>
<path d="M335.053 211.635C333.946 212.742 332.838 212.742 331.177 212.742C329.515 212.742 327.854 212.189 327.3 211.635C326.192 210.528 325.639 209.42 325.639 206.098H327.854C327.854 208.313 327.854 208.866 328.962 209.974C329.515 210.528 330.069 211.081 331.177 211.081C332.284 211.081 333.392 210.528 333.392 209.974C334.5 208.866 334.5 207.759 334.5 206.098C334.5 202.775 333.946 201.668 331.731 200.56L328.962 199.453C326.193 198.345 325.639 196.684 325.639 192.808C325.639 190.593 326.192 188.932 327.3 187.824C328.408 186.717 329.515 186.717 331.177 186.717C332.838 186.717 333.946 187.271 335.053 188.378C336.161 189.485 336.715 191.147 336.715 193.362H334.5C334.5 191.7 334.5 190.593 333.392 190.039C332.838 189.485 332.284 188.932 331.177 188.932C330.069 188.932 329.515 189.485 328.962 190.039C328.408 190.593 327.854 192.254 327.854 193.915C327.854 196.684 328.408 197.792 330.623 198.899L333.392 200.007C336.161 201.114 336.715 203.329 336.715 206.651C336.715 208.866 336.161 210.528 335.053 211.635Z" fill="white"/>
<path d="M340.592 213.297V187.271H349.452V189.486H342.807V199.453H348.899V201.114H342.807V211.082H349.452V213.297H340.592Z" fill="white"/>
<path d="M363.297 187.271H361.082V212.743H363.297V187.271Z" fill="white"/>
<path d="M377.697 213.297L370.497 192.808V213.297H368.282V187.271H370.497L377.697 207.206L377.143 187.271H379.358V213.297H377.697Z" fill="white"/>
<path d="M393.757 211.635C392.649 212.743 391.542 213.297 389.88 213.297H384.342V187.271H389.88C391.542 187.271 392.649 187.825 393.757 188.932C395.418 190.593 395.418 192.808 395.418 200.561C395.418 207.759 395.418 209.974 393.757 211.635ZM392.096 190.04C391.542 189.486 390.988 188.932 389.88 188.932H387.111V211.082H389.88C390.988 211.082 391.542 210.528 392.096 209.974C393.203 208.867 393.203 207.206 393.203 200.007C393.203 192.808 393.203 191.147 392.096 190.04Z" fill="white"/>
<path d="M408.71 211.635C407.602 212.743 406.495 213.297 404.833 213.297C403.172 213.297 402.064 212.743 400.956 211.635C399.849 210.528 399.295 209.421 399.295 207.206V187.271H401.51V207.759C401.51 209.974 403.172 211.082 404.833 211.082C406.495 211.082 408.156 209.974 408.156 207.759V187.271H410.371V207.759C410.371 209.421 409.817 211.082 408.71 211.635Z" fill="white"/>
<path d="M423.663 211.635C422.555 212.742 421.447 212.742 419.786 212.742C418.125 212.742 416.463 212.189 415.909 211.635C414.802 210.528 414.248 209.42 414.248 206.098H416.463C416.463 208.313 416.463 208.866 417.571 209.974C418.125 210.528 418.678 211.081 419.786 211.081C420.894 211.081 422.001 210.528 422.001 209.974C423.109 208.866 423.109 207.759 423.109 206.098C423.109 202.775 422.555 201.668 420.34 200.56L417.571 199.453C414.802 198.345 414.248 196.684 414.248 192.808C414.248 190.593 414.802 188.932 415.909 187.824C417.017 186.717 418.125 186.717 419.786 186.717C421.447 186.717 422.555 187.271 423.663 188.378C424.77 189.485 425.324 191.147 425.324 193.362H423.109C423.109 191.7 423.109 190.593 422.001 190.039C421.447 189.485 420.894 188.932 419.786 188.932C418.678 188.932 418.125 189.485 417.571 190.039C417.017 190.593 416.463 192.254 416.463 193.915C416.463 196.684 417.017 197.792 419.232 198.899L422.001 200.007C424.77 201.114 425.324 203.329 425.324 206.651C425.324 208.866 424.77 210.528 423.663 211.635Z" fill="white"/>
<path d="M434.185 189.486V213.297H431.97V189.486H427.539V187.271H438.061V189.486H434.185Z" fill="white"/>
<path d="M450.799 213.297L446.922 201.668H443.6V213.297H441.384V187.271H446.369C449.691 187.271 451.907 188.378 451.907 194.47C451.907 198.346 450.799 200.561 448.584 201.114L452.46 213.297H450.799ZM446.922 189.486H444.153V200.007H446.922C449.691 200.007 450.245 198.346 450.245 195.023C450.245 191.147 449.138 189.486 446.922 189.486Z" fill="white"/>
<path d="M459.66 187.271H457.445V212.743H459.66V187.271Z" fill="white"/>
<path d="M464.644 213.297V187.271H473.505V189.486H466.86V199.453H472.398V201.114H466.86V211.082H473.505V213.297H464.644Z" fill="white"/>
<path d="M490.119 213.297H487.904L482.366 187.271H484.581L489.012 209.421L493.442 187.271H495.658L490.119 213.297Z" fill="white"/>
<path d="M507.287 211.635C506.18 212.743 505.072 213.296 503.411 213.296C501.749 213.296 500.642 212.743 499.534 211.635C497.873 209.974 497.873 207.759 497.873 200.007C497.873 192.254 497.873 190.039 499.534 188.378C500.642 187.271 501.749 186.717 503.411 186.717C505.072 186.717 506.18 187.271 507.287 188.378C508.949 190.039 508.949 192.254 508.949 200.007C509.503 208.313 508.949 209.974 507.287 211.635ZM506.18 190.039C505.626 189.485 505.072 188.932 503.965 188.932C502.857 188.932 502.303 189.485 501.749 190.039C500.642 191.147 500.642 192.808 500.642 200.56C500.642 208.313 500.642 209.42 501.749 211.081C502.303 211.635 502.857 212.189 503.965 212.189C505.072 212.189 505.626 211.635 506.18 211.081C507.287 209.974 507.287 208.313 507.287 200.56C507.287 192.808 507.287 191.147 506.18 190.039Z" fill="white"/>
<path d="M522.794 211.635C521.686 212.743 520.579 213.296 518.917 213.296C517.256 213.296 516.148 212.743 515.041 211.635C513.379 209.974 513.379 207.759 513.379 200.007C513.379 192.254 513.379 190.039 515.041 188.378C516.148 187.271 517.256 186.717 518.917 186.717C520.579 186.717 521.686 187.271 522.794 188.378C524.455 190.039 524.455 192.254 524.455 200.007C524.455 208.313 524.455 209.974 522.794 211.635ZM521.133 190.039C520.579 189.485 520.025 188.932 518.917 188.932C517.81 188.932 517.256 189.485 516.702 190.039C515.595 191.147 515.595 192.808 515.595 200.56C515.595 208.313 515.595 209.42 516.702 211.081C517.256 211.635 517.81 212.189 518.917 212.189C520.025 212.189 520.579 211.635 521.133 211.081C522.24 209.974 522.24 208.313 522.24 200.56C522.24 192.808 522.24 191.147 521.133 190.039Z" fill="white"/>
<path d="M538.301 213.297L534.424 201.668H531.101V213.297H528.886V187.271H533.87C537.193 187.271 539.408 188.378 539.408 194.47C539.408 198.346 538.301 200.561 536.086 201.114L539.962 213.297H538.301ZM534.424 189.486H531.655V200.007H534.424C537.193 200.007 537.747 198.346 537.747 195.023C537.747 191.147 536.639 189.486 534.424 189.486Z" fill="white"/>
<path d="M561.007 211.635C559.899 212.743 558.792 213.297 557.13 213.297H551.592V187.271H557.13C558.792 187.271 559.899 187.825 561.007 188.932C562.668 190.593 562.668 192.808 562.668 200.561C562.668 207.759 562.668 209.974 561.007 211.635ZM559.345 190.04C558.792 189.486 558.238 188.932 557.13 188.932H553.807V211.082H556.576C557.684 211.082 558.238 210.528 558.792 209.974C559.899 208.867 559.899 207.206 559.899 200.007C560.453 192.808 560.453 191.147 559.345 190.04Z" fill="white"/>
<path d="M567.099 213.297V187.271H575.96V189.486H569.314V199.453H575.406V201.114H569.314V211.082H575.96V213.297H567.099Z" fill="white"/>
<path d="M582.605 189.486V199.453H588.697V201.114H582.605V213.297H580.39V187.271H589.251V189.486H582.605Z" fill="white"/>
<path d="M593.681 213.297V187.271H602.542V189.486H595.343V199.453H601.435V201.114H595.343V211.082H602.542V213.297H593.681Z" fill="white"/>
<path d="M615.834 213.297L608.634 192.808V213.297H606.419V187.271H608.634L615.834 207.206V187.271H618.049V213.297H615.834Z" fill="white"/>
<path d="M631.894 211.635C630.786 212.742 629.679 212.742 628.017 212.742C626.356 212.742 624.695 212.189 624.141 211.635C623.033 210.528 622.479 209.42 622.479 206.098H624.695C624.695 208.313 624.695 208.866 625.802 209.974C626.356 210.528 626.91 211.081 628.017 211.081C629.125 211.081 630.233 210.528 630.233 209.974C631.34 208.866 631.34 207.759 631.34 206.098C631.34 202.775 630.787 201.668 628.571 200.56L625.802 199.453C623.033 198.345 622.479 196.684 622.479 192.808C622.479 190.593 623.033 188.932 624.141 187.824C625.248 186.717 626.356 186.717 628.017 186.717C629.679 186.717 630.786 187.271 631.894 188.378C633.002 189.485 633.556 191.147 633.556 193.362H631.34C631.34 191.7 631.34 190.593 630.233 190.039C629.679 189.485 629.125 188.932 628.017 188.932C626.91 188.932 626.356 189.485 625.802 190.039C625.248 190.593 624.695 192.254 624.695 193.915C624.695 196.684 625.248 197.792 627.464 198.899L630.233 200.007C633.002 201.114 633.556 203.329 633.556 206.651C633.556 208.866 633.002 210.528 631.894 211.635Z" fill="white"/>
<path d="M639.647 187.271H637.432V212.743H639.647V187.271Z" fill="white"/>
<path d="M644.632 213.297V187.271H653.493V189.486H646.847V199.453H652.939V201.114H646.847V211.082H653.493V213.297H644.632Z" fill="white"/>
<path d="M665.123 213.297V187.271H673.984V189.486H667.338V199.453H672.876V201.114H667.338V211.082H673.984V213.297H665.123Z" fill="white"/>
<path d="M687.275 213.297L680.076 192.808V213.297H678.414V187.271H680.076L687.275 207.206V187.271H689.49V213.297H687.275Z" fill="white"/>
<path d="M707.212 213.297H704.997L699.459 187.271H701.674L706.104 209.421L709.981 187.271H712.196L707.212 213.297Z" fill="white"/>
<path d="M714.965 213.297V187.271H724.38V189.486H717.18V199.453H723.272V201.114H717.18V211.082H724.38V213.297H714.965Z" fill="white"/>
<path d="M730.472 187.271H728.257V212.743H730.472V187.271Z" fill="white"/>
<path d="M735.456 213.297V187.271H737.671V211.082H744.317V213.297H735.456Z" fill="white"/>
<path d="M749.855 187.271H747.64V212.743H749.855V187.271Z" fill="white"/>
<path d="M760.378 213.296C758.716 213.296 757.609 212.743 756.501 211.635C754.839 209.974 754.839 207.759 754.839 200.007C754.839 192.254 754.839 190.039 756.501 188.378C757.609 187.271 758.716 186.717 760.378 186.717C762.039 186.717 763.147 187.271 764.254 188.378C765.362 189.485 765.916 191.147 765.916 193.362H763.7C763.7 191.147 763.147 188.932 760.378 188.932C759.27 188.932 758.716 189.485 758.162 190.039C757.055 191.147 757.055 192.808 757.055 200.56C757.055 208.313 757.055 209.42 758.162 211.081C758.716 211.635 759.27 212.189 760.378 212.189C762.039 212.189 763.7 210.528 763.7 208.313V202.221H760.378V200.56H765.916V208.866C765.362 211.635 763.147 213.296 760.378 213.296Z" fill="white"/>
<path d="M778.653 213.297V201.114H772.008V213.297H769.792V187.271H772.008V198.899H778.653V187.271H780.868V213.297H778.653Z" fill="white"/>
<path d="M785.853 213.297V187.271H794.714V189.486H787.514V199.453H793.606V201.114H787.514V211.082H794.714V213.297H785.853Z" fill="white"/>
<path d="M800.805 187.271H798.59V212.743H800.805V187.271Z" fill="white"/>
<path d="M815.205 211.635C814.097 212.743 812.989 213.297 811.328 213.297H805.79V187.271H811.328C812.989 187.271 814.097 187.825 815.205 188.932C816.866 190.593 816.866 192.808 816.866 200.561C816.866 207.759 816.866 209.974 815.205 211.635ZM813.543 190.04C812.989 189.486 812.436 188.932 811.328 188.932H808.559V211.082H811.328C812.436 211.082 812.989 210.528 813.543 209.974C814.651 208.867 814.651 207.206 814.651 200.007C814.651 192.808 814.651 191.147 813.543 190.04Z" fill="white"/>
<path d="M543.285 79.2917C541.07 82.0604 537.193 84.2754 531.655 84.2754H516.148V23.3641H531.655C537.747 23.3641 541.07 25.5791 543.285 28.3478C547.715 33.3314 547.715 42.1912 547.715 53.8197C547.715 65.4482 547.715 74.3081 543.285 79.2917ZM536.085 34.4389C534.978 32.7777 533.316 32.2239 531.101 32.2239H525.563V75.9693H531.101C533.316 75.9693 534.978 74.8618 536.085 73.7543C537.747 70.9856 538.301 64.8945 538.301 54.3735C537.747 43.2987 537.747 37.2076 536.085 34.4389Z" fill="white"/>
<path d="M554.915 84.2754V23.3641H580.944V32.2239H564.883V49.3898H578.729V57.6959H564.883V75.4155H580.944V84.2754H554.915Z" fill="white"/>
<path d="M597.004 32.2239V49.3898H610.85V57.6959H597.004V84.2754H587.59V23.3641H613.065V32.2239H597.004Z" fill="white"/>
<path d="M619.71 84.2754V23.3641H645.739V32.2239H629.679V49.3898H643.524V57.6959H629.679V75.4155H645.739V84.2754H619.71Z" fill="white"/>
<path d="M676.753 84.2754L662.354 48.2824V84.2754H652.385V23.3641H661.246L675.091 59.3571V23.3641H685.06V84.2754H676.753Z" fill="white"/>
<path d="M719.396 80.953C717.18 83.1679 712.75 84.8291 707.212 84.8291C701.674 84.8291 697.797 83.1679 695.582 80.953C692.813 78.1843 691.705 74.3081 691.705 67.6632H701.12C701.12 70.9857 701.674 73.2006 702.782 74.3081C703.889 75.4156 704.997 75.9693 707.212 75.9693C709.427 75.9693 711.089 75.4156 711.642 74.3081C712.75 72.6469 713.304 70.9857 713.304 67.6632C713.304 61.0184 712.196 59.3572 707.766 57.6959L700.566 54.9273C694.474 52.1586 692.259 48.8361 692.259 39.4226C692.259 33.8852 693.921 29.4553 697.243 26.6866C700.012 24.4716 703.335 22.8104 707.766 22.8104C712.75 22.8104 716.073 23.9179 718.842 26.6866C722.165 30.009 723.272 33.8852 723.272 39.9763H713.858C713.858 37.2076 713.858 34.9927 712.196 33.3315C711.089 32.224 709.981 31.6702 707.766 31.6702C705.551 31.6702 704.443 32.224 703.889 33.3315C702.782 34.4389 702.228 36.6539 702.228 39.4226C702.228 44.4062 702.781 46.0674 707.212 47.7287L714.411 50.4973C721.611 53.266 723.826 57.1422 723.826 67.6632C723.272 73.7544 722.719 77.6305 719.396 80.953Z" fill="white"/>
<path d="M739.887 23.3641H730.472V84.2754H739.887V23.3641Z" fill="white"/>
<path d="M749.301 84.2754V23.3641H774.776V32.2239H758.716V49.3898H772.561V57.6959H758.716V75.4155H774.776V84.2754H749.301Z" fill="white"/>
<path d="M812.989 84.2755L808.005 77.0769C804.128 82.0606 800.805 84.8293 793.606 84.8293C785.853 84.8293 780.315 79.2919 780.315 69.8783C780.315 62.6797 783.637 57.1423 790.837 50.4975C784.745 42.1914 783.084 39.4227 783.084 34.4391C783.084 27.7942 786.96 22.2568 794.714 22.2568C802.467 22.2568 806.344 27.2405 806.344 33.8853C806.344 41.0839 803.574 44.9601 796.929 51.0512L808.005 68.2171C810.22 64.8947 811.882 58.8036 811.882 53.8199H816.312C815.758 61.0185 813.543 67.6634 810.22 72.647L817.42 83.7218H812.989V84.2755ZM793.606 54.9274C788.068 60.4648 785.299 64.8947 785.299 69.8783C785.299 75.4157 788.622 80.3994 794.714 80.3994C799.144 80.3994 802.467 77.0769 805.79 73.2008L793.606 54.9274ZM794.714 27.2405C789.729 27.2405 788.068 31.1166 788.068 34.9928C788.068 38.3152 789.175 41.0839 794.16 48.2825C798.59 43.8526 801.359 40.5302 801.359 34.9928C801.913 30.0092 798.59 27.2405 794.714 27.2405Z" fill="white"/>
<path d="M538.301 161.799H528.332L515.041 100.887H525.563L533.317 146.848L541.07 100.887H551.592L538.301 161.799Z" fill="white"/>
<path d="M557.13 161.799V100.887H583.159V109.194H567.099V126.913H580.944V135.219H567.099V152.939H583.159V161.799H557.13Z" fill="white"/>
<path d="M599.22 100.887H589.805V161.799H599.22V100.887Z" fill="white"/>
<path d="M608.081 161.799V100.887H618.049V152.939H634.109V161.799H608.081Z" fill="white"/>
<path d="M649.616 100.887H640.201V161.799H649.616V100.887Z" fill="white"/>
<path d="M673.984 162.352C667.892 162.352 664.569 160.137 662.354 157.369C657.923 152.385 657.923 143.525 657.923 131.343C657.923 119.161 657.923 110.301 662.354 105.317C665.123 102.549 668.445 100.334 673.984 100.334C678.968 100.334 682.291 101.995 685.06 104.21C687.829 107.532 689.49 111.962 690.044 116.946H680.629C680.629 113.623 679.522 108.64 674.537 108.64C672.322 108.64 670.661 109.747 670.107 110.855C668.445 113.623 667.892 119.715 667.892 131.343C667.892 142.418 668.445 148.509 670.107 151.831C671.215 152.939 672.322 154.046 674.537 154.046C678.414 154.046 680.629 150.724 680.629 146.294V136.88H674.537V129.128H690.044V145.74C689.49 156.261 682.844 162.352 673.984 162.352Z" fill="white"/>
<path d="M718.842 161.799V135.219H706.658V161.799H697.243V100.887H706.658V126.359H718.842V100.887H728.257V161.799H718.842Z" fill="white"/>
<path d="M737.118 161.799V100.887H762.593V109.194H746.532V126.913H760.377V135.219H746.532V152.939H762.593V161.799H737.118Z" fill="white"/>
<path d="M779.207 100.887H769.792V161.799H779.207V100.887Z" fill="white"/>
<path d="M815.204 156.815C812.989 159.584 809.113 161.799 803.575 161.799H788.068V100.887H803.575C809.666 100.887 812.989 103.102 815.204 105.871C819.635 110.855 819.635 119.715 819.635 131.343C819.635 142.972 819.635 151.831 815.204 156.815ZM808.005 111.962C806.897 110.301 805.236 109.747 803.021 109.747H797.483V153.493H803.021C805.236 153.493 806.897 152.385 808.005 151.278C809.666 148.509 810.22 142.418 810.22 131.897C810.22 121.376 810.22 114.731 808.005 111.962Z" fill="white"/>
<path d="M235.368 48.8365H201.586V57.1426H235.368V48.8365Z" fill="#E83945"/>
<path d="M235.368 57.1426H201.586V65.4487H235.368V57.1426Z" fill="white"/>
<path d="M235.368 65.4486H201.586V73.7547H235.368V65.4486Z" fill="#213A8F"/>
<defs>
<linearGradient id="paint0_linear" x1="445.098" y1="163.402" x2="445.098" y2="0.763261" gradientUnits="userSpaceOnUse">
<stop stop-color="#005CA9"/>
<stop offset="0.5" stop-color="#005CA9"/>
<stop offset="0.704" stop-color="#004F92"/>
<stop offset="1" stop-color="#003869"/>
</linearGradient>
</defs>
</svg>
